<?xml version="1.0" encoding="UTF-8"?>
<svg id="b" data-name="Layer 2" xmlns="http://www.w3.org/2000/svg" width="444.872" height="655.223" viewBox="0 0 444.872 655.223">
  <g id="c" data-name="Layer 1">
    <path d="m438.668,175.244c-.377-.247-.76-.453-1.146-.629-5.512-2.776-11.44-2.162-17.356-1.644h0c-13.118,9.591-28.091,5.217-42.381,5.433-17.662.267-31.516-10.418-37.377-24.164-6.573-15.413-14.221-28.316-26.738-39.004-3.728-3.183-6.485-7.78-8.9-12.164-4.168-7.567-3.715-14.492,6.598-15.232,18.938-1.359,32.629-10.337,44.226-25.028,10.811-13.694,9.66-33.021-3.603-44.193-8.908-7.503-20.592-8.088-29.881-13.749-7.644-4.658-14.566-6.922-22.521-2.46-8.94,5.015-10.49,15.283-8.741,22.559,5.605,23.318-7.044,33.684-25.307,41.463-7.265.072-14.577,5.81-20.914,4.023-1.221-1.931-.411-3.398,1.244-4.815,4.861-4.162,7.424-10.411,7.358-16.81-.055-5.316-.079-10.63.093-15.938.421-12.96-9.444-20.461-18.422-19.606-21.584,2.055-43.511-1.883-64.696,3.48-20.079,5.083-40.242,10.038-60.291,15.088-19.549,4.923-39.94,8.439-60.849,7.834-10.472-.303-21.818,4.558-28.321,14.968-3.245,5.195-7.971,5.532-13.209,4.919-7.618-1.461-9.07,2.894-6.101,8.14,3.11,5.497,8.28,9.391,15.584,7.208,21.395,5.1,39.14,18.176,58.801,27.075,23.278,10.537,30.303,21.844,24.971,46.727-7.783,36.323,1.755,69.302,13.467,102.839,7.214,20.659,18.148,40.55,17.694,63.441-1.062,7.859,2.528,15.389,1.58,23.274.722,2.173,1.146,4.555,3.685,5.508.484.051.971.105,1.46.156-4.719,12.725.163,34.235,10.937,43.882.032,12.144.063,24.288.095,36.432,2.583,3.938,3.489,8.273,3.359,12.952-.981,35.199-4.751,69.88-17.637,103.084-1.574,4.057-5.875,8.924-.649,13.677,3.949.159,4.87-3.086,6.637-5.387,20.171-26.262,23.704-58.11,29.04-89.116,1.342-7.801,3.777-13.112,9.925-17.25l-.271-11.757c1.406-7.328-1.478-17.208,3.373-21.61,6.673-6.056,8.054-12.899,10.13-20.394-2.312-3.091-4.105-6.633-6.559-9.711-3.04-17.269-.586-33.506,9.085-48.388,1.063-1.089,1.6-2.092,1.624-3.014,1.626-1.684,3.241-3.364,4.865-4.983,1.019-5.683.264-11.432-.8-16.921-2.288-11.815-.936-22.589,6.598-32.266,6.287-18.057,5.795-35.439-4.118-52.38-5.324-9.099-6.302-17.951,4.773-24.574,15.152-9.061,28.11-9.531,36.361-.629,13.743,14.828,19.63,47.019,10.607,64.453-4.846,9.363-8.934,18.921-12.68,28.686-1.162,3.658-2.918,7.136-3.565,10.958-.106,1.608-.164,3.234-.171,4.846-.043,6.081-.423,12.184.173,18.305,1.615.692,3.161,1.407,4.539,2.187-.264,3.743-.528,7.487-.792,11.23.348.879.596,1.785.744,2.719.642.421,1.284.842,1.926,1.262-1.326,1.776-.526,4.653-.537,7,.27,8.229-2.108,17.402,6.922,22.592-.892,1.599-1.157,3.572-1.426,5.54-.146,2.1-.573,4.149-1.054,6.185.329,9.233-2.389,17.922-4.749,26.669-.37,1.386-.754,2.774-1.11,4.161-.812,10.471-3.351,20.453-8.548,29.663-4.87,6.18-6.629,13.608-8.436,21.014-5.285,14.6-18.691,24.114-24.172,38.594.073,1.6.521,3.082,1.349,4.449-.193,3.751-2.509,6.386-4.479,9.357-10.968,16.55-26.55,28.785-39.913,43.084-28.25,30.227-58.582,57.946-95.103,78.158-4.083,2.26-10.967,3.392-9.298,10.062,1.6,6.395,8.089,4.885,12.874,4.961,22.21.354,44.423.449,66.636.637,20.088,3.737,40.173,3.909,60.254-.067h.003c10.247-.004,20.493-.008,30.74-.012,16.034,3.826,32.077,3.752,48.129.115,0,0,.001,0,.002,0,6.382-1.199,12.736-2.586,19.156-3.537,5.337-.79,9.109-3.697,7.747-8.867-3.187-12.103.192-25.192-5.883-36.754-.02-3.984-.039-7.968-.058-11.952,0,0,0,0,0,0,0,0,0,0,0,0-1.047-20.826,3.903-41.05,8.759-60.804,9.623-39.144,24.418-76.818,26.163-118.054.682-16.114-1.026-33.316,5.701-49.052,1.972-7.098,8.132-14.415,2.439-21.112.462-.324.904-.68,1.305-1.095,8.499-7.095,6.18-15.056,1.791-23.195-.205-3.793-1.963-9.973,1.204-10.66,5.312-1.153,3.341,5.665,5.283,8.605,2.084,7.151,2.619,15.066,9.512,19.922,12.354,8.924,18.355,6.929,22.64-7.282,2.049-6.794,1.373-13.176-1.698-19.435.699-4.911,1.39-9.824,2.101-14.734.66-4.559-3.358-11.957,3.117-12.864,5.23-.733,8.425,5.827,9.473,11.555,2.297,5.388,6.519,9.684,12.062,7.325,4.334-1.844,5.408-7.537,3.548-12.659-2.527-7.087-6.08-14.164-.186-21.324,1.002-3.228,3.288-5.52,4.076-9.349,2.918-14.18-9.428-23.44-10.085-36.142-.095-7.852,5.48-11.157,11.515-13.595,6.281-2.536,13.564-2.571,18.84-7.628,4.066-2.907,9.299-4.461,11.305-9.756.114-.837.359-1.634.736-2.39-.638-4.828.196-10.396-6.204-12.323Zm-199.105-104.084c-.853.295-1.706.592-2.559.889.802-.366,1.671-.64,2.559-.889Z" fill="gray"/>
  </g>
</svg>