<?xml version="1.0" encoding="UTF-8"?>
<svg id="b" data-name="Layer 2" xmlns="http://www.w3.org/2000/svg" width="396.091" height="396.091" viewBox="0 0 396.091 396.091">
  <g id="c" data-name="Layer 1">
    <g>
      <circle cx="198.046" cy="198.046" r="189.046" fill="none" stroke="#ffe8ff" stroke-miterlimit="10" stroke-width="18"/>
      <path d="m256.248,149.019l-.07,78.8c-.06,2.6-.92,4.74-2.6,6.42-1.69,1.68-3.66,2.54-5.93,2.56-2.27.03-4.27-.83-6-2.56-.81-.81-1.46-1.74-1.95-2.79-.48-1.04-.7-2.1-.65-3.17l-.38-21.48,2.11-41.22-13.73,15.84-72.15,72.16c-1.84,1.83-3.9,2.73-6.19,2.68-2.3-.06-4.34-.97-6.12-2.76-1.78-1.78-2.7-3.82-2.75-6.11-.05-2.3.84-4.36,2.67-6.19l72.16-72.16,15.94-13.81-41.32,2.19-21.47-.38c-1.08.05-2.13-.17-3.18-.65-1.04-.48-1.97-1.13-2.79-1.95-1.73-1.73-2.58-3.73-2.56-6,.03-2.27.88-4.24,2.56-5.92,1.69-1.68,3.82-2.55,6.42-2.6l78.81-.08c2.75-.1,4.99.72,6.73,2.45,1.73,1.73,2.54,3.97,2.44,6.73Z" fill="#ffe8ff"/>
    </g>
  </g>
</svg>